name p8_grf_mean_speed_1.0
datacolumns 13
datarows 46
range 0.0000000000 0.4500000000
endheader
time	grf_x_l_mean	grf_x_l_var	grf_y_l_mean	grf_y_l_var	grf_z_l_mean	grf_z_l_var	grf_x_r_mean	grf_x_r_var	grf_y_r_mean	grf_y_r_var	grf_z_r_mean	grf_z_r_var
0.0000000000	97.5427126320	1.0000000000	640.6023876902	1.0000000000	0.0000000000	0.0000000000	3.3329378241	1.0000000000	10.8236162866	1.0000000000	0.0000000000	0.0000000000
0.0100000000	105.6378118934	1.0000000000	630.2350199762	1.0000000000	0.0000000000	0.0000000000	3.9353852604	1.0000000000	42.1313722733	1.0000000000	0.0000000000	0.0000000000
0.0200000000	113.2784486812	1.0000000000	613.6328737508	1.0000000000	0.0000000000	0.0000000000	1.1235059426	1.0000000000	93.2054778158	1.0000000000	0.0000000000	0.0000000000
0.0300000000	119.5278848768	1.0000000000	589.1280848686	1.0000000000	0.0000000000	0.0000000000	-8.6489649399	1.0000000000	160.0409310497	1.0000000000	0.0000000000	0.0000000000
0.0400000000	123.4682582663	1.0000000000	554.8917224994	1.0000000000	0.0000000000	0.0000000000	-24.0155473106	1.0000000000	234.8577470738	1.0000000000	0.0000000000	0.0000000000
0.0500000000	124.4541243426	1.0000000000	509.7395814727	1.0000000000	0.0000000000	0.0000000000	-41.0073053485	1.0000000000	309.6029840645	1.0000000000	0.0000000000	0.0000000000
0.0600000000	120.5750655100	1.0000000000	453.3553467412	1.0000000000	0.0000000000	0.0000000000	-57.0129601838	1.0000000000	377.5013965421	1.0000000000	0.0000000000	0.0000000000
0.0700000000	111.0519311864	1.0000000000	386.7553461423	1.0000000000	0.0000000000	0.0000000000	-70.2166715258	1.0000000000	434.4825504709	1.0000000000	0.0000000000	0.0000000000
0.0800000000	95.0030336101	1.0000000000	313.4701920355	1.0000000000	0.0000000000	0.0000000000	-80.2227820455	1.0000000000	481.1212324045	1.0000000000	0.0000000000	0.0000000000
0.0900000000	73.4553561296	1.0000000000	239.2104248722	1.0000000000	0.0000000000	0.0000000000	-87.5863656513	1.0000000000	520.2816160684	1.0000000000	0.0000000000	0.0000000000
0.1000000000	49.9904124664	1.0000000000	170.5893520760	1.0000000000	0.0000000000	0.0000000000	-91.9120503233	1.0000000000	554.6130661400	1.0000000000	0.0000000000	0.0000000000
0.1100000000	28.5726596900	1.0000000000	113.1506070221	1.0000000000	0.0000000000	0.0000000000	-93.5135884672	1.0000000000	585.6333995637	1.0000000000	0.0000000000	0.0000000000
0.1200000000	12.7946472379	1.0000000000	69.2403124339	1.0000000000	0.0000000000	0.0000000000	-92.7978480940	1.0000000000	613.2505861148	1.0000000000	0.0000000000	0.0000000000
0.1300000000	3.5833739730	1.0000000000	38.0384360854	1.0000000000	0.0000000000	0.0000000000	-89.9929771923	1.0000000000	636.3100087630	1.0000000000	0.0000000000	0.0000000000
0.1400000000	-0.9335208300	1.0000000000	17.5851055783	1.0000000000	0.0000000000	0.0000000000	-86.0415156858	1.0000000000	654.4810840349	1.0000000000	0.0000000000	0.0000000000
0.1500000000	-2.3118607162	1.0000000000	5.7107239656	1.0000000000	0.0000000000	0.0000000000	-81.3947795055	1.0000000000	668.4245064817	1.0000000000	0.0000000000	0.0000000000
0.1600000000	-2.0570815266	1.0000000000	0.0116091880	1.0000000000	0.0000000000	0.0000000000	-76.2228157497	1.0000000000	678.6626375244	1.0000000000	0.0000000000	0.0000000000
0.1700000000	0.0000000000	1.0000000000	0.0000000000	1.0000000000	0.0000000000	0.0000000000	-70.6578574826	1.0000000000	685.0960576390	1.0000000000	0.0000000000	0.0000000000
0.1800000000	0.0000000000	1.0000000000	0.0000000000	1.0000000000	0.0000000000	0.0000000000	-64.6463480194	1.0000000000	687.3863732548	1.0000000000	0.0000000000	0.0000000000
0.1900000000	0.0000000000	1.0000000000	0.0000000000	1.0000000000	0.0000000000	0.0000000000	-58.5129167556	1.0000000000	684.8823391540	1.0000000000	0.0000000000	0.0000000000
0.2000000000	0.0000000000	1.0000000000	0.0000000000	1.0000000000	0.0000000000	0.0000000000	-52.5121705027	1.0000000000	676.9380787629	1.0000000000	0.0000000000	0.0000000000
0.2100000000	0.0000000000	1.0000000000	0.0000000000	1.0000000000	0.0000000000	0.0000000000	-46.8137327758	1.0000000000	664.0244069311	1.0000000000	0.0000000000	0.0000000000
0.2200000000	0.0000000000	1.0000000000	0.0000000000	1.0000000000	0.0000000000	0.0000000000	-41.5736216813	1.0000000000	647.8421099504	1.0000000000	0.0000000000	0.0000000000
0.2300000000	-0.0456092753	1.0000000000	0.0358476429	1.0000000000	0.0000000000	0.0000000000	-36.6886136301	1.0000000000	630.6500869081	1.0000000000	0.0000000000	0.0000000000
0.2400000000	-0.0567312635	1.0000000000	0.0266425311	1.0000000000	0.0000000000	0.0000000000	-32.1215550236	1.0000000000	614.6857075814	1.0000000000	0.0000000000	0.0000000000
0.2500000000	-0.0504260566	1.0000000000	0.0088011269	1.0000000000	0.0000000000	0.0000000000	-27.7433727639	1.0000000000	601.1184863936	1.0000000000	0.0000000000	0.0000000000
0.2600000000	0.0000000000	1.0000000000	0.0000000000	1.0000000000	0.0000000000	0.0000000000	-23.4644753720	1.0000000000	590.2923084942	1.0000000000	0.0000000000	0.0000000000
0.2700000000	0.0000000000	1.0000000000	0.0000000000	1.0000000000	0.0000000000	0.0000000000	-19.3652401810	1.0000000000	582.4470076573	1.0000000000	0.0000000000	0.0000000000
0.2800000000	0.0000000000	1.0000000000	0.0000000000	1.0000000000	0.0000000000	0.0000000000	-15.2698091461	1.0000000000	577.2321109895	1.0000000000	0.0000000000	0.0000000000
0.2900000000	0.0000000000	1.0000000000	0.0000000000	1.0000000000	0.0000000000	0.0000000000	-11.1576355079	1.0000000000	573.9372939452	1.0000000000	0.0000000000	0.0000000000
0.3000000000	0.0000000000	1.0000000000	0.0000000000	1.0000000000	0.0000000000	0.0000000000	-7.0354181847	1.0000000000	572.2650718978	1.0000000000	0.0000000000	0.0000000000
0.3100000000	0.0000000000	1.0000000000	0.0000000000	1.0000000000	0.0000000000	0.0000000000	-2.8271554787	1.0000000000	572.0010346363	1.0000000000	0.0000000000	0.0000000000
0.3200000000	0.0000000000	1.0000000000	0.0000000000	1.0000000000	0.0000000000	0.0000000000	1.3818392932	1.0000000000	572.7458894440	1.0000000000	0.0000000000	0.0000000000
0.3300000000	0.0000000000	1.0000000000	0.0000000000	1.0000000000	0.0000000000	0.0000000000	5.5805837678	1.0000000000	574.1939531798	1.0000000000	0.0000000000	0.0000000000
0.3400000000	0.0000000000	1.0000000000	0.0000000000	1.0000000000	0.0000000000	0.0000000000	9.7432117473	1.0000000000	576.2937406891	1.0000000000	0.0000000000	0.0000000000
0.3500000000	0.0000000000	1.0000000000	0.0000000000	1.0000000000	0.0000000000	0.0000000000	13.7654043386	1.0000000000	579.1067507418	1.0000000000	0.0000000000	0.0000000000
0.3600000000	0.0000000000	1.0000000000	0.0000000000	1.0000000000	0.0000000000	0.0000000000	17.7177317568	1.0000000000	582.5330176077	1.0000000000	0.0000000000	0.0000000000
0.3700000000	0.0000000000	1.0000000000	0.0000000000	1.0000000000	0.0000000000	0.0000000000	21.6279820201	1.0000000000	586.3430732888	1.0000000000	0.0000000000	0.0000000000
0.3800000000	-0.0066689151	1.0000000000	0.0037771237	1.0000000000	0.0000000000	0.0000000000	25.5517540002	1.0000000000	590.5190599092	1.0000000000	0.0000000000	0.0000000000
0.3900000000	-0.0075411486	1.0000000000	0.0578955256	1.0000000000	0.0000000000	0.0000000000	29.6563262900	1.0000000000	595.1397683797	1.0000000000	0.0000000000	0.0000000000
0.4000000000	-0.0105841970	1.0000000000	0.1444083659	1.0000000000	0.0000000000	0.0000000000	34.0508024756	1.0000000000	600.0906702861	1.0000000000	0.0000000000	0.0000000000
0.4100000000	-0.0187046334	1.0000000000	0.2325497091	1.0000000000	0.0000000000	0.0000000000	38.8871883777	1.0000000000	605.2870917296	1.0000000000	0.0000000000	0.0000000000
0.4200000000	-0.0322325939	1.0000000000	0.2334848659	1.0000000000	0.0000000000	0.0000000000	44.3191102215	1.0000000000	610.7422905197	1.0000000000	0.0000000000	0.0000000000
0.4300000000	0.0000000000	1.0000000000	0.0000000000	1.0000000000	0.0000000000	0.0000000000	50.3563148653	1.0000000000	616.3117197363	1.0000000000	0.0000000000	0.0000000000
0.4400000000	0.0000000000	1.0000000000	0.0000000000	1.0000000000	0.0000000000	0.0000000000	57.0873332688	1.0000000000	621.6418687499	1.0000000000	0.0000000000	0.0000000000
0.4500000000	0.0000000000	1.0000000000	0.0000000000	1.0000000000	0.0000000000	0.0000000000	64.5585676616	1.0000000000	626.2662476264	1.0000000000	0.0000000000	0.0000000000
